<?xml version="1.0"?>
<svg width="640" height="480" xmlns="http://www.w3.org/2000/svg" xmlns:svg="http://www.w3.org/2000/svg" xmlns:xlink="http://www.w3.org/1999/xlink">
 <!-- Created with SVG-edit - https://github.com/SVG-Edit/svgedit-->
 <defs>
  <symbol height="800px" id="svg_1" viewBox="0 0 400 400" width="800px" xmlns="http://www.w3.org/2000/svg">
   <path d="m220.83,34c-28.72,78.98 -55.24,163.06 -102.2,233.64c-2.77,4.17 -24.94,32.42 -23.15,36.01c0.78,1.58 28.03,-9.09 31.13,-9.6c27.48,-4.59 60.02,1.43 86.24,8" stroke="#000000" stroke-linecap="round" stroke-linejoin="round" stroke-opacity="0.9" stroke-width="16"/>
   <path d="m222.18,39.4c17.75,90.38 0.77,182.33 0.77,272.5" stroke="#000000" stroke-linecap="round" stroke-linejoin="round" stroke-opacity="0.9" stroke-width="16"/>
   <path d="m242.74,110.9c12.99,68.2 5.22,135.07 -13.81,201" stroke="#000000" stroke-linecap="round" stroke-linejoin="round" stroke-opacity="0.9" stroke-width="16"/>
   <path d="m242.42,118.99c29.21,56.73 58.01,123.79 58.01,188.87" stroke="#000000" stroke-linecap="round" stroke-linejoin="round" stroke-opacity="0.9" stroke-width="16"/>
   <path d="m232.97,304.76c22.43,-5.63 39.06,-0.56 58.01,11.19" stroke="#000000" stroke-linecap="round" stroke-linejoin="round" stroke-opacity="0.9" stroke-width="16"/>
   <path d="m94.02,334.84c71.04,-6.46 143.86,5.05 211.8,-17.54" stroke="#000000" stroke-linecap="round" stroke-linejoin="round" stroke-opacity="0.9" stroke-width="16"/>
   <path d="m308.52,324.04c-2.46,7.89 -5.84,14.92 -10.79,21.59" stroke="#000000" stroke-linecap="round" stroke-linejoin="round" stroke-opacity="0.9" stroke-width="16"/>
   <path d="m92,340.23c0,5.85 0,11.69 0,17.54" stroke="#000000" stroke-linecap="round" stroke-linejoin="round" stroke-opacity="0.9" stroke-width="16"/>
   <path d="m98.07,362.08c2.7,-1.88 7.6,-5.6 11.04,-5.6c7.77,0 14.62,10.89 22.95,7.46c4.35,-1.79 6.67,-8.37 11.89,-9.33c8.8,-1.6 41.28,12.74 45.03,10.27c5.77,-3.8 39.8,-8.4 59.19,-0.94c7.69,2.96 43.6,-13.99 49.56,-12.12" opacity="0.5" stroke="#000000" stroke-linecap="round" stroke-linejoin="round" stroke-opacity="0.9" stroke-width="16"/>
   <path d="m137.19,319.76c4.92,-24.14 71.5,-23.7 71.5,5.63" stroke="#000000" stroke-linecap="round" stroke-linejoin="round" stroke-opacity="0.9" stroke-width="16"/>
  </symbol>
 </defs>
 <g class="layer">
  <title>Layer 1</title>
  <use id="svg_2" transform="matrix(1 0 0 1 0 0) translate(167 151) scale(0.4 0.4)" xlink:href="#svg_1"/>
  <text fill="#000000" font-family="Serif" font-size="51" id="svg_3" stroke="#000000" stroke-width="0" text-anchor="middle" x="328" xml:space="preserve" y="88">Nauti-Control Mobile</text>
 </g>
</svg>